<?xml version="1.0" encoding="UTF-8" standalone="no"?>
<?xml-stylesheet type="text/css" href="../css/svg.css"?>
<!-- Created with Inkscape (http://www.inkscape.org/) -->

<svg
   width="87.450638mm"
   height="69.766327mm"
   viewBox="0 0 87.450638 69.766327"
   version="1.1"
   id="svg5"
   xmlns="http://www.w3.org/2000/svg"
   xmlns:svg="http://www.w3.org/2000/svg">
  <defs
     id="defs2" />
  <g
     id="layer1"
     transform="translate(-61.449307,-119.44338)">
    <path
       class="logo"
       d="m 98.827707,180.31185 c -0.82983,-0.36068 -0.7896,-0.77606 0.12012,-1.24016 0.93825,-0.47866 1.669013,-1.33899 2.340343,-2.75528 l 0.52488,-1.10732 -0.63538,-1.20177 c -1.917393,-3.62659 -1.753483,-8.18531 0.3956,-11.00292 0.99132,-1.29969 3.06678,-1.82618 4.62777,-1.17396 1.07061,0.44733 1.30981,1.24304 1.30357,4.33647 -0.005,2.68129 -0.37401,5.025 -1.21551,7.72874 l -0.37902,1.21781 1.00484,1.02641 c 1.02908,1.05118 2.19315,1.76415 3.44152,2.10787 0.64007,0.17623 0.74863,0.14727 1.18069,-0.31497 0.26169,-0.27997 0.61642,-0.78779 0.78829,-1.12848 0.30386,-0.60238 0.29695,-0.6448 -0.25067,-1.5394 -1.77686,-2.90267 -2.55599,-6.68633 -1.82252,-8.85072 0.7058,-2.08279 2.06749,-3.29913 3.87704,-3.46321 1.6807,-0.15241 2.80855,0.38953 3.34782,1.60863 0.79413,1.79527 0.67046,6.7968 -0.25021,10.11916 l -0.37973,1.37028 0.56472,0.56472 c 0.9805,0.9805 3.88889,1.2498 5.05556,0.46812 0.79476,-0.5325 1.82756,-2.02484 2.09902,-3.033 0.18088,-0.67173 0.14464,-0.83089 -0.38538,-1.69228 -1.46056,-2.37371 -3.32813,-6.89585 -4.62241,-11.19271 -2.91516,-9.67799 -3.02512,-15.60728 -0.3138,-16.91981 0.96705,-0.46814 2.70118,-0.53278 3.65063,-0.13607 1.37879,0.5761 3.11352,3.23791 4.04238,6.20275 0.68137,2.17488 1.78354,7.41035 2.16328,10.27586 0.32819,2.47648 0.28376,7.41381 -0.0995,11.06057 -0.15792,1.50262 -0.14931,1.55313 0.40127,2.35337 0.83377,1.21184 2.57126,3.03215 3.65015,3.82412 1.10978,0.81465 1.26115,0.75822 1.89056,-0.70488 0.29874,-0.69445 0.39915,-1.26593 0.35783,-2.03671 l -0.0574,-1.0714 -1.00179,-0.37283 c -1.62137,-0.60343 -2.40326,-1.82297 -2.05638,-3.20744 0.26059,-1.04012 1.14276,-1.47434 2.99526,-1.47434 1.83214,0 2.32873,0.30913 3.14169,1.95571 l 0.57728,1.16921 0.76969,-0.28478 c 0.45404,-0.16798 1.47995,-0.29018 2.50152,-0.29795 3.10264,-0.0236 5.15102,0.90769 5.73296,2.60645 0.64262,1.87595 0.71848,2.25545 0.59951,2.99945 -0.11007,0.68829 -0.22415,0.82563 -0.98153,1.18164 -1.51411,0.71171 -3.11048,1.03414 -3.91972,0.79169 -1.29211,-0.38713 -1.4924,-1.19712 -0.39095,-1.58108 0.3911,-0.13634 0.6556,-0.42494 0.86183,-0.94035 0.26368,-0.65901 0.26566,-0.851 0.0174,-1.68685 -0.49827,-1.67787 -1.2365,-1.94003 -3.45894,-1.22833 l -1.15454,0.36973 -0.11773,1.42106 c -0.13315,1.60735 -0.58196,2.64128 -1.54984,3.57038 -0.87991,0.84464 -2.03413,1.21083 -3.81653,1.21083 -2.2486,0 -3.44551,-0.54189 -5.72641,-2.59262 l -1.0055,-0.90403 -0.46661,0.55454 c -0.65591,0.7795 -2.11463,1.51998 -3.54263,1.79832 -1.48262,0.28899 -5.25069,0.13294 -6.74212,-0.27923 l -1.03099,-0.28492 -0.95333,0.75357 c -1.66977,1.31987 -2.95141,1.41479 -6.2427,0.46233 -0.94059,-0.2722 -2.16651,-0.74171 -2.72426,-1.04335 l -1.01409,-0.54844 -1.02464,1.02463 c -1.40011,1.40011 -3.1439,1.83015 -4.692253,1.15717 z m 37.410013,-8.28898 c 0.27199,-0.70878 -0.72624,-1.62262 -1.77247,-1.62262 -0.75266,0 -0.5885,0.65074 0.33559,1.33032 0.9024,0.66363 1.26601,0.7376 1.43688,0.2923 z m -22.00046,-0.94414 c 0.57173,-0.57172 0.63533,-4.0028 0.0866,-4.67129 -0.29533,-0.35977 -0.87991,-0.29016 -1.10567,0.13167 -0.28441,0.53143 -0.25837,4.30227 0.0317,4.59235 0.30896,0.30896 0.64355,0.29109 0.98736,-0.0527 z m -9.51395,-5.81346 c -0.43277,-0.35916 -0.64658,-0.79023 -1.45954,0.33448 -0.5438,0.75234 -0.71416,3.92176 -0.42729,4.45243 0.48179,0.89122 1.0857,0.93693 1.48759,0.0984 0.45243,-0.50869 1.22447,-4.16828 0.39924,-4.88531 z m 20.4161,-4.10139 c -0.69506,-5.74049 -2.97145,-14.18001 -3.70286,-13.72798 -0.12128,0.075 -0.1558,0.98695 -0.0927,2.44983 0.14573,3.37968 1.19681,8.11665 2.99351,13.49103 l 0.90061,2.69394 0.0614,-1.53939 c 0.0338,-0.84667 -0.0382,-2.36201 -0.15993,-3.36743 z m -52.770418,17.8641 c -0.307882,-0.11244 -0.577982,-0.38634 -0.64524,-0.65431 -0.06362,-0.2535 -0.127377,-4.38094 -0.141673,-9.17209 -0.02128,-7.13295 0.0558,-10.05337 0.425452,-16.11951 0.470031,-7.71333 0.64577,-18.11993 0.337129,-19.96351 l -0.16904,-1.00971 0.740821,-0.30954 c 0.487954,-0.20388 1.067233,-0.27817 1.697111,-0.21765 1.365011,0.13116 1.763886,0.65413 1.971867,2.58535 0.199812,1.85533 0.143534,6.84729 -0.125703,11.15023 -0.111598,1.78357 -0.256572,6.96627 -0.322166,11.5171 -0.09669,6.70833 -0.05519,9.34853 0.219312,13.95076 0.186215,3.12208 0.415126,5.75877 0.508691,5.85931 0.299418,0.32175 0.185418,1.37931 -0.184797,1.71435 -0.420185,0.38027 -2.292527,0.89936 -3.166216,0.87781 -0.338795,-0.008 -0.854292,-0.10222 -1.145548,-0.20859 z m 16.98343,-0.0827 c -0.97812,-0.42417 -4.92839,-4.523 -6.19844,-6.43156 -1.800886,-2.70624 -4.760496,-9.05976 -4.51647,-9.69568 0.0606,-0.15791 0.396052,-0.43335 0.745456,-0.61209 1.092506,-0.55886 3.007804,-2.18653 4.138514,-3.51701 2.79345,-3.28697 4.54802,-7.06863 5.45129,-11.74925 0.82588,-4.27962 0.95464,-11.95066 0.27163,-16.18339 -0.71527,-4.4327 -2.60483,-7.91124 -4.97013,-9.14963 -1.01541,-0.53164 -1.09574,-0.54344 -2.16834,-0.31846 -3.542551,0.74306 -7.661065,3.85244 -10.387231,7.84213 -3.139785,4.59499 -5.880755,11.43864 -6.163422,15.3888 -0.106166,1.48364 -0.0937,1.54636 0.344222,1.73182 1.83332,0.77639 -1.449318,2.12506 -3.46342,1.42294 -0.810265,-0.28246 -0.986774,-0.67301 -0.986774,-2.18335 0,-4.33859 3.281107,-12.67765 6.898034,-17.53163 4.067989,-5.45932 9.982439,-8.78062 15.134541,-8.49893 2.83786,0.15515 4.91608,1.20229 6.61099,3.331 1.58378,1.98914 2.86878,5.31323 3.27806,8.47977 0.53825,4.16447 0.40544,11.60609 -0.27263,15.27618 -0.8276,4.47934 -2.40874,8.33055 -4.65806,11.34568 -0.9518,1.27586 -3.65357,3.95745 -4.70594,4.67078 -0.50379,0.34149 -0.918212,0.72627 -0.920941,0.85506 -0.0071,0.33446 2.026741,4.95317 2.735441,6.21204 1.96135,3.48395 5.50036,7.59119 6.88081,7.98561 0.53602,0.15315 0.67348,0.28944 0.67348,0.6678 0,0.31389 -0.16342,0.55805 -0.48106,0.71875 -0.65327,0.3305 -2.4478,0.29901 -3.26961,-0.0574 z"
       id="path944" />
    <g
       aria-label="DOWNLOAD"
       id="text3151"
       style="font-size:10.1125px;line-height:1.25;letter-spacing:1.88347px;stroke-width:0.252814">
      <path
         d="m 72.077803,182.0804 h 2.801163 q 1.102262,0 1.951712,0.45506 0.859563,0.45506 1.33485,1.26406 0.475288,0.79889 0.475288,1.82025 0,1.02137 -0.475288,1.83037 -0.475287,0.79888 -1.33485,1.25395 -0.84945,0.45506 -1.951712,0.45506 h -2.801163 z m 2.760713,6.61357 q 0.980912,0 1.729237,-0.38427 0.748325,-0.39439 1.152825,-1.09215 0.4045,-0.69776 0.4045,-1.59778 0,-0.90001 -0.4045,-1.59777 -0.4045,-0.69776 -1.152825,-1.08204 -0.748325,-0.39439 -1.729237,-0.39439 h -2.244975 v 6.1484 z"
         class="download"
         id="path908" />
      <path
         d="m 85.317593,189.20971 q -1.041587,0 -1.880925,-0.46517 -0.839337,-0.47529 -1.324737,-1.2944 -0.475288,-0.81912 -0.475288,-1.83037 0,-1.01125 0.475288,-1.83036 0.4854,-0.81911 1.324737,-1.28429 0.839338,-0.47528 1.880925,-0.47528 1.041588,0 1.880925,0.46517 0.839338,0.46518 1.314625,1.28429 0.4854,0.81911 0.4854,1.84047 0,1.02137 -0.4854,1.84048 -0.475287,0.81911 -1.314625,1.28429 -0.839337,0.46517 -1.880925,0.46517 z m 0,-0.47529 q 0.8899,0 1.607888,-0.4045 0.717987,-0.4045 1.1326,-1.11237 0.414612,-0.71799 0.414612,-1.59778 0,-0.87978 -0.414612,-1.58766 -0.414613,-0.71799 -1.1326,-1.12249 -0.717988,-0.4045 -1.607888,-0.4045 -0.8899,0 -1.618,0.4045 -0.717987,0.4045 -1.1326,1.12249 -0.414612,0.70788 -0.414612,1.58766 0,0.87979 0.414612,1.59778 0.414613,0.70787 1.1326,1.11237 0.7281,0.4045 1.618,0.4045 z"
         class="download"
         id="path910" />
      <path
         d="m 101.92484,182.0804 -2.396663,7.07875 h -0.546075 l -2.194412,-6.35065 -2.204525,6.35065 H 94.03709 l -2.406775,-7.07875 h 0.546075 l 2.153962,6.37087 2.214638,-6.37087 h 0.495512 l 2.204525,6.38099 2.174193,-6.38099 z"
         class="download"
         id="path912" />
      <path
         d="m 111.05895,182.0804 v 7.07875 h -0.42472 l -4.82366,-6.1484 v 6.1484 h -0.51574 v -7.07875 h 0.43484 l 4.81355,6.1484 v -6.1484 z"
         class="download"
         id="path914" />
      <path
         d="m 115.40986,182.0804 h 0.51574 v 6.61357 h 4.07534 v 0.46518 h -4.59108 z"
         class="download"
         id="path916" />
      <path
         d="m 126.07096,189.20971 q -1.04159,0 -1.88093,-0.46517 -0.83933,-0.47529 -1.32473,-1.2944 -0.47529,-0.81912 -0.47529,-1.83037 0,-1.01125 0.47529,-1.83036 0.4854,-0.81911 1.32473,-1.28429 0.83934,-0.47528 1.88093,-0.47528 1.04159,0 1.88092,0.46517 0.83934,0.46518 1.31463,1.28429 0.4854,0.81911 0.4854,1.84047 0,1.02137 -0.4854,1.84048 -0.47529,0.81911 -1.31463,1.28429 -0.83933,0.46517 -1.88092,0.46517 z m 0,-0.47529 q 0.8899,0 1.60789,-0.4045 0.71798,-0.4045 1.1326,-1.11237 0.41461,-0.71799 0.41461,-1.59778 0,-0.87978 -0.41461,-1.58766 -0.41462,-0.71799 -1.1326,-1.12249 -0.71799,-0.4045 -1.60789,-0.4045 -0.8899,0 -1.618,0.4045 -0.71799,0.4045 -1.1326,1.12249 -0.41461,0.70788 -0.41461,1.58766 0,0.87979 0.41461,1.59778 0.41461,0.70787 1.1326,1.11237 0.7281,0.4045 1.618,0.4045 z"
         class="download"
         id="path918" />
      <path
         d="m 137.70287,187.16699 h -4.10568 l -0.90001,1.99216 h -0.55619 l 3.25623,-7.07875 h 0.51574 l 3.25622,7.07875 h -0.55619 z m -0.19214,-0.43484 -1.8607,-4.08545 -1.85059,4.08545 z"
         class="download"
         id="path920" />
      <path
         d="m 142.33694,182.0804 h 2.80116 q 1.10226,0 1.95171,0.45506 0.85956,0.45506 1.33485,1.26406 0.47529,0.79889 0.47529,1.82025 0,1.02137 -0.47529,1.83037 -0.47529,0.79888 -1.33485,1.25395 -0.84945,0.45506 -1.95171,0.45506 h -2.80116 z m 2.76071,6.61357 q 0.98091,0 1.72924,-0.38427 0.74832,-0.39439 1.15282,-1.09215 0.4045,-0.69776 0.4045,-1.59778 0,-0.90001 -0.4045,-1.59777 -0.4045,-0.69776 -1.15282,-1.08204 -0.74833,-0.39439 -1.72924,-0.39439 h -2.24498 v 6.1484 z"
         class="download"
         id="path922" />
    </g>
  </g>
</svg>
